<svg width="52" height="53" viewBox="0 0 52 53" fill="none" xmlns="http://www.w3.org/2000/svg">
<g id="Icon / Professional" clip-path="url(#clip0_202_818)">
<g id="Pro">
<path id="Vector" d="M41.6001 29.1C41.6001 27.6267 40.0401 26.5 38.1334 26.5C36.2267 26.5 34.6667 27.6267 34.6667 29.1V31.7L30.4201 29.88C31.4601 28.9267 32.1534 27.7133 32.5867 26.4133L34.9267 25.2C35.7934 24.7667 36.4001 23.9 36.4001 22.86V21.3C36.4001 19.8267 35.2734 18.7 33.8001 18.7H33.4534L32.9334 19.22V16.9667H34.6667V14.3667C34.6667 8.99333 31.1134 4.22667 26.0001 2.75333C25.8267 1.45333 24.7001 0.5 23.4001 0.5H21.6667C20.3667 0.5 19.2401 1.45333 19.0667 2.75333C13.9534 4.22667 10.4001 8.99333 10.4001 14.3667V16.9667H12.1334V19.22L11.6134 18.7H11.2667C9.7934 18.7 8.66673 19.8267 8.66673 21.3V22.86C8.66673 23.8133 9.18673 24.7667 10.1401 25.2L12.4801 26.4133C12.9134 27.7133 13.6067 28.9267 14.6467 29.88L7.4534 33C3.98673 34.56 1.7334 37.94 1.7334 41.7533V52.5H45.0667V27.28L41.6001 32.1333V29.1ZM36.4001 39.3267V31.3533C37.5267 31.7867 38.7401 31.7867 39.8667 31.3533V34.4733L36.4001 39.3267ZM38.1334 28.2333C39.1734 28.2333 39.8667 28.7533 39.8667 29.1C39.8667 29.4467 39.1734 29.9667 38.1334 29.9667C37.0934 29.9667 36.4001 29.4467 36.4001 29.1C36.4001 28.7533 37.0934 28.2333 38.1334 28.2333ZM34.6667 35.7733L29.0334 39.9333C28.6001 40.1933 27.9934 40.3667 27.4734 40.3667H24.5267L24.7867 39.3267C24.8734 38.98 25.2201 38.6333 25.6534 38.6333H26.8667C28.2534 38.6333 29.5534 37.94 30.4201 36.8133L33.1934 32.9133L34.7534 33.6067V35.7733H34.6667ZM23.1401 38.8933L22.5334 41.1467L21.9267 38.8933C21.6667 37.68 20.6267 36.9 19.4134 36.9H18.2001C17.3334 36.9 16.5534 36.4667 16.1201 35.7733L13.5201 32.1333L16.2067 30.92L18.7201 32.3067C21.0601 33.6067 23.8334 33.6067 26.1734 32.3067L28.6867 30.92L31.3734 32.1333L28.7734 35.7733C28.2534 36.4667 27.4734 36.9 26.6934 36.9H25.4801C24.4401 36.9 23.4001 37.68 23.1401 38.8933ZM20.5401 40.3667H17.5934C17.0734 40.3667 16.4667 40.1933 16.0334 39.8467L8.4934 34.3867L11.8734 32.9133L14.6467 36.8133C15.4267 37.94 16.8134 38.6333 18.2001 38.6333H19.4134C19.8467 38.6333 20.1934 38.8933 20.2801 39.3267L20.5401 40.3667ZM34.1467 20.52C34.4934 20.6067 34.6667 20.9533 34.6667 21.3V22.86C34.6667 23.2067 34.4934 23.4667 34.1467 23.64L32.9334 24.2467V24.16V21.7333L34.1467 20.52ZM12.3067 15.2333C12.6534 14.1933 13.6067 13.5 14.7334 13.5H30.3334C31.4601 13.5 32.4134 14.1933 32.7601 15.2333H12.3067ZM19.0667 4.57333V10.0333H20.8001V3.1C20.8001 2.58 21.1467 2.23333 21.6667 2.23333H23.4001C23.9201 2.23333 24.2667 2.58 24.2667 3.1V10.0333H26.0001V4.57333C29.5534 5.78667 32.1534 8.82 32.7601 12.5467C32.0667 12.0267 31.2001 11.7667 30.3334 11.7667H14.7334C13.8667 11.7667 13.0001 12.0267 12.3067 12.5467C12.9134 8.82 15.5134 5.78667 19.0667 4.57333ZM10.9201 23.64C10.6601 23.4667 10.4001 23.2067 10.4001 22.86V21.3C10.4001 20.9533 10.6601 20.6067 10.9201 20.52L12.1334 21.7333V24.16V24.2467L10.9201 23.64ZM13.8667 24.16V16.9667H31.2001V24.16C31.2001 26.4133 29.9867 28.4067 28.0801 29.4467L25.4801 30.8333C23.6601 31.7867 21.4934 31.7867 19.6734 30.8333L17.0734 29.4467C15.0801 28.4067 13.8667 26.3267 13.8667 24.16ZM3.46673 41.6667C3.46673 39.0667 4.76673 36.7267 6.84673 35.2533L15.0801 41.2333C15.8601 41.7533 16.7267 42.1 17.5934 42.1H21.6667V50.7667H19.0667V43.8333H12.8267L12.1334 41.06L10.4001 41.4067L11.0067 43.8333H9.5334V50.7667H3.46673V41.6667ZM17.3334 45.5667V47.3H11.2667V45.5667H17.3334ZM11.2667 49.0333H17.3334V50.7667H11.2667V49.0333ZM23.4001 50.7667V42.1H27.4734C28.4267 42.1 29.2934 41.84 29.9867 41.2333L34.6667 37.8533V41.6667L28.1667 50.7667H23.4001ZM43.3334 32.6533V50.7667H30.3334L41.6001 35.1667V35.08L43.3334 32.6533Z" fill="#004AE2"/>
<path id="Vector_2" d="M41.601 44.988V34.4219L33.8877 44.988H41.601ZM39.8677 43.3991H37.181L39.8677 39.6652V43.3991Z" fill="#004AE2"/>
</g>
</g>
<defs>
<clipPath id="clip0_202_818">
<rect width="52" height="52" fill="white" transform="translate(0 0.5)"/>
</clipPath>
</defs>
</svg>
