<svg width="96" height="96" viewBox="0 0 96 96" fill="none" xmlns="http://www.w3.org/2000/svg">
<g id="left-quote 1" clip-path="url(#clip0_202_973)">
<g id="Group">
<g id="Group_2">
<path id="Vector" d="M30.5117 43.9384C28.1637 43.2624 25.8157 42.9194 23.5317 42.9194C20.0047 42.9194 17.0617 43.7254 14.7797 44.7124C16.9797 36.6584 22.2647 22.7614 32.7927 21.1964C33.7677 21.0514 34.5667 20.3464 34.8327 19.3974L37.1337 11.1674C37.3277 10.4714 37.2127 9.72642 36.8157 9.12242C36.4187 8.51842 35.7807 8.11542 35.0657 8.01742C34.2887 7.91142 33.4967 7.85742 32.7117 7.85742C20.0747 7.85742 7.55972 21.0474 2.27872 39.9334C-0.821281 51.0134 -1.73028 67.6714 5.90572 78.1564C10.1787 84.0234 16.4127 87.1564 24.4347 87.4694C24.4677 87.4704 24.4997 87.4714 24.5327 87.4714C34.4307 87.4714 43.2077 80.8054 45.8777 71.2624C47.4727 65.5574 46.7517 59.5744 43.8457 54.4114C40.9707 49.3064 36.2357 45.5854 30.5117 43.9384Z" fill="#E8EFFC"/>
<path id="Vector_2" d="M92.4708 54.4124C89.5958 49.3064 84.8608 45.5854 79.1368 43.9384C76.7888 43.2624 74.4408 42.9194 72.1578 42.9194C68.6308 42.9194 65.6868 43.7254 63.4048 44.7124C65.6048 36.6584 70.8898 22.7614 81.4188 21.1964C82.3938 21.0514 83.1918 20.3464 83.4588 19.3974L85.7598 11.1674C85.9538 10.4714 85.8388 9.72642 85.4418 9.12242C85.0458 8.51842 84.4078 8.11542 83.6918 8.01742C82.9158 7.91142 82.1238 7.85742 81.3378 7.85742C68.7008 7.85742 56.1858 21.0474 50.9038 39.9334C47.8048 51.0134 46.8958 67.6714 54.5328 78.1584C58.8048 84.0244 65.0398 87.1584 73.0608 87.4704C73.0938 87.4714 73.1258 87.4724 73.1598 87.4724C83.0568 87.4724 91.8348 80.8064 94.5048 71.2634C96.0978 65.5584 95.3758 59.5744 92.4708 54.4124Z" fill="#E8EFFC"/>
</g>
</g>
</g>
<defs>
<clipPath id="clip0_202_973">
<rect width="95.333" height="95.332" fill="white" transform="translate(0 -0.000976562)"/>
</clipPath>
</defs>
</svg>
